<svg width="30" height="30" viewBox="0 0 30 30" fill="none" xmlns="http://www.w3.org/2000/svg">
<rect opacity="0.1" width="30" height="30" rx="4" fill="#64748B"/>
<path fill-rule="evenodd" clip-rule="evenodd" d="M21.9844 9.86401H8.01766C7.51984 9.86401 7.12478 10.2351 7.04996 10.713L15.001 15.9515L22.9521 10.713C22.8773 10.2351 22.4822 9.86401 21.9844 9.86401ZM7.01953 18.8346V11.8871L12.4007 15.4327L7.01953 18.8346ZM22.9817 18.8346L17.6005 15.4327L22.9817 11.8871V18.8346ZM15.2749 16.9652L16.6865 16.0354L22.9496 19.9959C22.8728 20.4698 22.4797 20.8379 21.9839 20.8379H8.01714C7.52132 20.8379 7.12825 20.4698 7.05143 19.9959L13.3145 16.0344L14.7262 16.9652C14.81 17.02 14.9048 17.047 15.0005 17.047C15.0963 17.047 15.1911 17.02 15.2749 16.9652Z" fill="#64748B"/>
</svg>
