<svg width="30" height="30" viewBox="0 0 30 30" fill="none" xmlns="http://www.w3.org/2000/svg">
<rect opacity="0.1" width="30" height="30" rx="4" fill="#64748B"/>
<path fill-rule="evenodd" clip-rule="evenodd" d="M11.8387 11.1126C11.8387 9.11844 13.461 7.49609 15.4551 7.49609C17.4493 7.49609 19.0716 9.11844 19.0716 11.1126C19.0716 13.1067 17.4493 14.729 15.4551 14.729C13.461 14.729 11.8387 13.1067 11.8387 11.1126ZM16.2589 15.5326C17.6521 15.5326 18.9647 16.0862 19.9548 17.0916C20.94 18.092 21.4827 19.4125 21.4827 20.81C21.4827 21.0319 21.3027 21.2118 21.0808 21.2118H9.82956C9.60765 21.2118 9.42773 21.0319 9.42773 20.81C9.42773 19.4125 9.97034 18.092 10.9556 17.0916C11.9457 16.0862 13.2583 15.5326 14.6515 15.5326H16.2589Z" fill="#64748B"/>
</svg>
