<svg width="30" height="30" viewBox="0 0 30 30" fill="none" xmlns="http://www.w3.org/2000/svg">
<rect opacity="0.1" width="30" height="30" rx="4" fill="#64748B"/>
<path d="M21.5614 18.6636L20.1078 17.6944L18.8156 16.8331C18.5662 16.6671 18.231 16.7215 18.0469 16.9579L17.2473 17.9858C17.0755 18.2089 16.7666 18.273 16.5202 18.1366C15.9777 17.8348 15.3361 17.5506 13.9204 16.1332C12.5048 14.7157 12.2188 14.0759 11.917 13.5333C11.7806 13.287 11.8447 12.978 12.0678 12.8063L13.0957 12.0067C13.332 11.8226 13.3864 11.4875 13.2205 11.238L12.3856 9.98561L11.39 8.49215C11.2205 8.23795 10.8813 8.16163 10.6193 8.31875L9.4711 9.0076C9.16079 9.19043 8.93268 9.48566 8.83403 9.83208C8.52003 10.9769 8.45673 13.5024 12.5041 17.5497C16.5514 21.5971 19.0767 21.5336 20.2215 21.2195C20.5679 21.1209 20.8631 20.8928 21.046 20.5825L21.7348 19.4342C21.8919 19.1722 21.8156 18.833 21.5614 18.6636Z" fill="#64748B" stroke="#64748B" stroke-width="2"/>
</svg>
