<svg width="70" height="70" viewBox="0 0 70 70" fill="none" xmlns="http://www.w3.org/2000/svg">
<path d="M20.8727 46.5819C20.8726 48.8843 21.326 51.1641 22.207 53.2913C23.0879 55.4185 24.3793 57.3513 26.0073 58.9794C27.6353 60.6075 29.568 61.899 31.6952 62.7801C33.8223 63.6613 36.1022 64.1148 38.4046 64.1148C40.707 64.1148 42.9868 63.6613 45.1139 62.7801C47.2411 61.899 49.1738 60.6075 50.8018 58.9794C52.4298 57.3513 53.7212 55.4185 54.6022 53.2913C55.4832 51.1641 55.9365 48.8843 55.9364 46.5819C55.9365 44.2795 55.4832 41.9996 54.6022 39.8724C53.7212 37.7452 52.4298 35.8124 50.8018 34.1843C49.1738 32.5562 47.2411 31.2647 45.1139 30.3836C42.9868 29.5025 40.707 29.049 38.4046 29.049C36.1022 29.049 33.8223 29.5025 31.6952 30.3836C29.568 31.2647 27.6353 32.5562 26.0073 34.1843C24.3793 35.8124 23.0879 37.7452 22.207 39.8724C21.326 41.9996 20.8726 44.2795 20.8727 46.5819Z" fill="#ffff"/>
<path d="M15.75 40.9182C14.4136 37.6409 14.0636 25.8364 19.4409 22.9091C19.4409 22.9091 19.2182 17.9454 23.3545 18.1682C23.3545 18.1682 21.6682 10.5636 25.6773 13.0136C29.6864 15.4636 34.8409 14.0636 37.3864 13.7454C39.9318 13.4273 47.8227 13.9682 50.9727 17.85C50.9727 17.85 53.6136 14.5727 55.3955 19.8545C56.9864 20.1727 62.4591 24.6909 61.6 32.2954C60.7409 39.9 58.45 45.15 58.0045 46.0091C57.5591 46.8682 53.6773 50.3364 53.9955 45.2773C54.3136 40.2182 51.3545 37.2591 51.3545 37.2591C51.3545 37.2591 44.6091 40.5364 41.8727 40.4091C42.0955 38.5 31.4364 42.5091 29.6545 41.3636C28.5091 39.6773 30.7045 36.8454 31.4364 35.8909C32.1682 34.9364 27.4273 39.0409 26.3773 38.1182C24.9136 38.4364 23.3227 38.2136 21.7318 43.4954C21.7636 45.1182 19.8545 50.9409 15.75 40.9182Z" fill="#ffff"/>
<path d="M34.3318 61.1546C23.8 61.1546 15.2091 52.5636 15.2091 42.0318C15.2091 41.1409 15.9091 40.4409 16.8 40.4409C17.6909 40.4409 18.3909 41.1409 18.3909 42.0318C18.3909 50.8136 25.55 57.9727 34.3318 57.9727C43.1137 57.9727 50.2727 50.8136 50.2727 42.0318C50.2727 41.1409 50.9727 40.4409 51.8637 40.4409C52.7546 40.4409 53.4546 41.1409 53.4546 42.0318C53.4546 52.5955 44.8955 61.1546 34.3318 61.1546Z" fill="#6E7D8C"/>
<path d="M51.0682 44.2591C50.8455 44.2591 50.5909 44.2273 50.4 44.1636C49.35 43.8773 48.1409 42.9227 48.3318 39.8682C48.5228 37.0364 47.5046 35 46.8046 33.9182C44.5773 34.9364 40.1546 36.7818 37.7364 36.6864L36.0182 36.6227L36.05 36.2091C35.0318 36.3364 33.5046 36.6864 32.3591 36.9091C28.35 37.7682 26.0273 38.2136 24.6909 37.3546L24.4364 37.1955L24.2455 36.9409C23.7046 36.1455 23.5455 35.2546 23.6728 34.3636C23.1 34.5227 22.5909 34.5546 22.0818 34.4273C21.1591 34.5864 20.3318 34.8409 19.2182 38.4046C19.1864 39.1046 18.9955 39.9 18.7091 40.6C18.0409 42.2227 17.0228 42.7318 16.2909 42.8909C13.5228 43.4318 11.55 39.6136 10.15 36.2091C8.78184 32.9 8.08184 20.8409 13.7455 16.7046C13.8409 15.6227 14.2228 13.8727 15.4637 12.6C16.0046 12.0591 16.6409 11.7091 17.3409 11.4864C17.1182 9.6091 17.15 7.1591 18.6137 6.1091C19.3137 5.60001 20.5227 5.25001 22.3364 6.33182C25.2318 8.08182 29.1137 7.47728 31.6591 7.06364C32.1364 7.00001 32.6137 6.90455 32.9955 6.87273C35.4773 6.55455 42.8273 6.93637 46.9318 10.4364C47.5364 10.1182 48.3 9.86364 49.1909 10.0227C50.5909 10.2773 51.6728 11.3909 52.5 13.3636C55.1091 14.7 59.8818 19.5682 59.0546 27.1727C58.1 35.7636 55.3318 41.3636 55.3 41.3955C54.9818 42.0636 54.1546 42.7955 53.5818 43.2409C52.7546 43.9409 51.8637 44.2591 51.0682 44.2591ZM47.6318 30.0682L48.4273 30.8636C48.5546 30.9909 51.8955 34.3955 51.5137 40.0909C51.4818 40.4409 51.4818 40.6955 51.5137 40.8864C51.8955 40.6318 52.3409 40.25 52.5318 39.9955C52.7546 39.5182 55.1091 34.4273 55.9364 26.8545C56.6682 20.2682 51.9909 16.4182 50.9728 16.1636L50.0818 15.9727L49.7955 15.1136C49.2228 13.4273 48.7137 13.1727 48.6818 13.1727C48.5864 13.1727 48.2682 13.3636 48.0773 13.5864L46.8364 15.1136L45.5955 13.5864C42.9864 10.3727 35.8273 9.73637 33.4409 10.0546C33.0909 10.0864 32.6773 10.15 32.2 10.2455C29.3682 10.6909 24.6273 11.4864 20.7137 9.10001C20.65 9.06819 20.5546 9.00455 20.5227 8.97273C20.3955 9.70455 20.4909 11.2318 20.7773 12.5364L21.2228 14.5727L19.1228 14.4773C18.2955 14.4455 17.9137 14.7 17.7228 14.8909C16.9909 15.5909 16.8955 17.0864 16.8955 17.5636L16.9273 18.55L16.0682 19.0273C13.5864 20.3955 12.7909 24.4364 12.5046 26.6955C12.0909 30.4818 12.5682 33.8546 13.0773 35.0318C14.35 38.15 15.2409 39.2318 15.6228 39.6136C15.8137 39.2318 16.0046 38.5636 16.0046 38.15V37.9273L16.0682 37.7046C17.6591 32.4227 19.4728 31.6591 21.5409 31.3091C21.6682 31.2773 21.7637 31.2773 21.8909 31.2455L22.6864 31.0864L22.9091 31.2773C23.6727 30.9909 25.0728 30.0046 25.5818 29.6546C26.4409 29.05 27.5228 28.3182 28.5091 29.3364C28.8591 29.7182 29.2728 30.6091 28.5409 31.5318C27.2046 33.2182 26.8546 34.1727 26.7591 34.65C27.9046 34.6182 30.1637 34.1091 31.6273 33.7909C35.4773 32.9636 37.3546 32.5818 38.5 33.4091C40.4728 33.0909 44.1955 31.5955 46.5182 30.45L47.6318 30.0682Z" fill="#6E7D8C"/>
<path d="M15.0182 47.4727C11.3273 47.4727 8.30457 44.6727 8.30457 41.2363C8.30457 39.0409 9.48184 37.0681 11.4864 35.9227C12.25 35.4772 13.2364 35.7318 13.65 36.4954C14.0955 37.2591 13.8409 38.2454 13.0773 38.6591C12.0909 39.2318 11.4864 40.1863 11.4864 41.2045C11.4864 42.8909 13.0773 44.2591 15.0182 44.2591C15.5591 44.2591 16.1 44.1636 16.5773 43.9409C17.3727 43.5909 18.3273 43.9727 18.6773 44.7681C19.0273 45.5636 18.6455 46.5181 17.85 46.8681C16.9273 47.2818 15.9727 47.4727 15.0182 47.4727ZM53.4546 47.4727C52.5637 47.4727 51.8637 46.7727 51.8637 45.8818C51.8637 44.9909 52.5637 44.2909 53.4546 44.2909C55.3955 44.2909 56.9864 42.9227 56.9864 41.2363C56.9864 40.0272 56.1591 38.9136 54.8864 38.4363C54.0591 38.1181 53.6455 37.1954 53.9637 36.3681C54.2818 35.5409 55.2046 35.1272 56.0318 35.4454C58.5455 36.4 60.1682 38.6909 60.1682 41.2363C60.1682 44.6727 57.1455 47.4727 53.4546 47.4727ZM26.3137 45.0227C25.0409 45.0227 24.0227 44.0045 24.0227 42.7318C24.0227 41.4591 25.0409 40.4409 26.3137 40.4409C27.5864 40.4409 28.6046 41.4591 28.6046 42.7318C28.6046 44.0045 27.5546 45.0227 26.3137 45.0227ZM26.3137 41.8409C25.8364 41.8409 25.4227 42.2545 25.4227 42.7318C25.4227 43.2091 25.8364 43.6227 26.3137 43.6227C26.7909 43.6227 27.2046 43.2091 27.2046 42.7318C27.2046 42.2545 26.7909 41.8409 26.3137 41.8409ZM42.7318 45.0227C41.4591 45.0227 40.4409 44.0045 40.4409 42.7318C40.4409 41.4591 41.4591 40.4409 42.7318 40.4409C44.0046 40.4409 45.0228 41.4591 45.0228 42.7318C45.0228 44.0045 44.0046 45.0227 42.7318 45.0227ZM42.7318 41.8409C42.2546 41.8409 41.8409 42.2545 41.8409 42.7318C41.8409 43.2091 42.2546 43.6227 42.7318 43.6227C43.2091 43.6227 43.6227 43.2091 43.6227 42.7318C43.6227 42.2545 43.2091 41.8409 42.7318 41.8409Z" fill="#6E7D8C"/>
</svg>
